<svg width="61" height="75" viewBox="0 0 61 75" fill="none" xmlns="http://www.w3.org/2000/svg">
<path d="M60.6142 51C60.6142 65.9117 50.0259 74.5 35.1142 74.5C20.2025 74.5 10 65.9117 10 51C10 36.0883 23.7025 22.5 38.6142 22.5C53.5259 22.5 60.6142 36.0883 60.6142 51Z" fill="#1A1918"/>
<path d="M0.32093 23.2253C0.488857 18.6401 3.93047 16.1218 8.64115 16.2944C13.3518 16.4669 16.4781 19.2257 16.3102 23.8109C16.1423 28.396 11.6606 32.4157 6.94989 32.2432C2.23921 32.0706 0.153003 27.8104 0.32093 23.2253Z" fill="#1A1918"/>
<path d="M19.7712 6.52645C21.7444 2.3842 25.9027 1.43795 30.1583 3.46516C34.414 5.49237 36.1893 9.26509 34.2161 13.4073C32.2429 17.5496 26.5342 19.4614 22.2786 17.4342C18.0229 15.407 17.7981 10.6687 19.7712 6.52645Z" fill="#1A1918"/>
<path d="M44.7684 5.35542C48.8331 3.22703 52.7268 4.96641 54.9135 9.14238C57.1001 13.3184 56.2552 17.4014 52.1905 19.5298C48.1258 21.6582 42.4125 19.7603 40.2259 15.5843C38.0392 11.4084 40.7037 7.48381 44.7684 5.35542Z" fill="#1A1918"/>
</svg>
